<svg width="48" height="51" viewBox="0 0 48 51" fill="none" xmlns="http://www.w3.org/2000/svg">
<path d="M13.4511 17.3037C13.2133 17.3037 12.9852 17.3997 12.817 17.5705C12.6488 17.7412 12.5544 17.9729 12.5544 18.2144V20.0359H10.761C10.5231 20.0359 10.2951 20.1318 10.1269 20.3026C9.95873 20.4734 9.86426 20.705 9.86426 20.9466C9.86426 21.1881 9.95873 21.4198 10.1269 21.5906C10.2951 21.7613 10.5231 21.8573 10.761 21.8573H13.4511C13.6889 21.8573 13.917 21.7613 14.0851 21.5906C14.2533 21.4198 14.3478 21.1881 14.3478 20.9466V18.2144C14.3478 17.9729 14.2533 17.7412 14.0851 17.5705C13.917 17.3997 13.6889 17.3037 13.4511 17.3037Z" fill="white"/>
<path d="M13.4513 23.6787H9.86448C9.62666 23.6787 9.39858 23.7747 9.23041 23.9455C9.06225 24.1162 8.96777 24.3479 8.96777 24.5894V28.2323C8.96777 28.4738 9.06225 28.7055 9.23041 28.8763C9.39858 29.0471 9.62666 29.143 9.86448 29.143H13.4513C13.6891 29.143 13.9172 29.0471 14.0854 28.8763C14.2535 28.7055 14.348 28.4738 14.348 28.2323V24.5894C14.348 24.3479 14.2535 24.1162 14.0854 23.9455C13.9172 23.7747 13.6891 23.6787 13.4513 23.6787ZM12.5546 27.3216H10.7612V25.5001H12.5546V27.3216Z" fill="white"/>
<path d="M13.4513 30.9644H9.86448C9.62666 30.9644 9.39858 31.0603 9.23041 31.2311C9.06225 31.4019 8.96777 31.6335 8.96777 31.8751V35.5179C8.96777 35.7595 9.06225 35.9911 9.23041 36.1619C9.39858 36.3327 9.62666 36.4287 9.86448 36.4287H13.4513C13.6891 36.4287 13.9172 36.3327 14.0854 36.1619C14.2535 35.9911 14.348 35.7595 14.348 35.5179V31.8751C14.348 31.6335 14.2535 31.4019 14.0854 31.2311C13.9172 31.0603 13.6891 30.9644 13.4513 30.9644ZM12.5546 34.6072H10.7612V32.7858H12.5546V34.6072Z" fill="white"/>
<path d="M13.4513 38.25H9.86448C9.62666 38.25 9.39858 38.3459 9.23041 38.5167C9.06225 38.6875 8.96777 38.9192 8.96777 39.1607V42.8036C8.96777 43.0451 9.06225 43.2768 9.23041 43.4476C9.39858 43.6184 9.62666 43.7143 9.86448 43.7143H13.4513C13.6891 43.7143 13.9172 43.6184 14.0854 43.4476C14.2535 43.2768 14.348 43.0451 14.348 42.8036V39.1607C14.348 38.9192 14.2535 38.6875 14.0854 38.5167C13.9172 38.3459 13.6891 38.25 13.4513 38.25ZM12.5546 41.8929H10.7612V40.0714H12.5546V41.8929Z" fill="white"/>
<path d="M26.0042 18.2144H17.9338C17.696 18.2144 17.4679 18.3103 17.2997 18.4811C17.1316 18.6519 17.0371 18.8835 17.0371 19.1251C17.0371 19.3666 17.1316 19.5983 17.2997 19.769C17.4679 19.9398 17.696 20.0358 17.9338 20.0358H26.0042C26.242 20.0358 26.4701 19.9398 26.6382 19.769C26.8064 19.5983 26.9009 19.3666 26.9009 19.1251C26.9009 18.8835 26.8064 18.6519 26.6382 18.4811C26.4701 18.3103 26.242 18.2144 26.0042 18.2144Z" fill="white"/>
<path d="M26.0042 25.4995H17.9338C17.696 25.4995 17.4679 25.5955 17.2997 25.7663C17.1316 25.937 17.0371 26.1687 17.0371 26.4102C17.0371 26.6518 17.1316 26.8834 17.2997 27.0542C17.4679 27.225 17.696 27.3209 17.9338 27.3209H26.0042C26.242 27.3209 26.4701 27.225 26.6382 27.0542C26.8064 26.8834 26.9009 26.6518 26.9009 26.4102C26.9009 26.1687 26.8064 25.937 26.6382 25.7663C26.4701 25.5955 26.242 25.4995 26.0042 25.4995Z" fill="white"/>
<path d="M24.2108 32.7856H17.9338C17.696 32.7856 17.4679 32.8816 17.2997 33.0524C17.1316 33.2232 17.0371 33.4548 17.0371 33.6964C17.0371 33.9379 17.1316 34.1695 17.2997 34.3403C17.4679 34.5111 17.696 34.6071 17.9338 34.6071H24.2108C24.4486 34.6071 24.6767 34.5111 24.8448 34.3403C25.013 34.1695 25.1075 33.9379 25.1075 33.6964C25.1075 33.4548 25.013 33.2232 24.8448 33.0524C24.6767 32.8816 24.4486 32.7856 24.2108 32.7856Z" fill="white"/>
<path d="M24.2108 40.0713H17.9338C17.696 40.0713 17.4679 40.1672 17.2997 40.338C17.1316 40.5088 17.0371 40.7405 17.0371 40.982C17.0371 41.2235 17.1316 41.4552 17.2997 41.626C17.4679 41.7968 17.696 41.8927 17.9338 41.8927H24.2108C24.4486 41.8927 24.6767 41.7968 24.8448 41.626C25.013 41.4552 25.1075 41.2235 25.1075 40.982C25.1075 40.7405 25.013 40.5088 24.8448 40.338C24.6767 40.1672 24.4486 40.0713 24.2108 40.0713Z" fill="white"/>
<path d="M47.1957 34.1426C46.9464 33.2211 46.4677 32.3804 45.8056 31.7014C45.1435 31.0225 44.3204 30.5281 43.4156 30.2661C44.4648 29.6738 45.2875 28.7404 45.7516 27.616L46.4712 25.8771C46.5633 25.6545 46.5646 25.4038 46.4747 25.1801C46.3848 24.9565 46.2112 24.7784 45.9919 24.6848L44.2799 23.9539C42.9645 23.3925 41.4834 23.3848 40.1624 23.9324C38.8414 24.48 37.7886 25.5381 37.2357 26.874L37.1822 27.0034C36.8901 26.5589 36.5555 26.1446 36.1835 25.7666C36.094 25.6759 35.9865 25.6056 35.8682 25.5602V9.10697C35.8672 8.14115 35.4889 7.2152 34.8165 6.53227C34.1441 5.84933 33.2324 5.46518 32.2814 5.4641H22.1935C22.0152 5.46392 21.8442 5.3919 21.7181 5.26384C21.592 5.13579 21.5211 4.96216 21.5209 4.78106V3.70414C21.5191 3.20835 21.4206 2.71785 21.2311 2.26094C21.0416 1.80404 20.7649 1.38979 20.4169 1.04211C20.0814 0.704553 19.6828 0.438516 19.2446 0.259637C18.8064 0.0807582 18.3374 -0.0073538 17.8652 0.000480073C16.9275 0.0233682 16.0355 0.416595 15.3786 1.09665C14.7218 1.77671 14.3518 2.69004 14.3473 3.64266V4.78106C14.3471 4.96216 14.2762 5.13579 14.1501 5.26384C14.024 5.3919 13.8531 5.46392 13.6748 5.4641H3.58682C2.63587 5.46518 1.72416 5.84933 1.05174 6.53227C0.379307 7.2152 0.00106803 8.14115 0 9.10697V47.3571C0.00106803 48.3229 0.379307 49.2488 1.05174 49.9318C1.72416 50.6147 2.63587 50.9989 3.58682 50.9999H32.2814C32.5598 50.9995 32.8372 50.9663 33.1081 50.9009C33.8475 51.0593 34.6142 51.0274 35.3384 50.8081C36.0626 50.5888 36.7213 50.1891 37.2545 49.6453L37.3423 49.556L37.4301 49.6453C37.8521 50.0761 38.3541 50.4177 38.907 50.6502C39.4599 50.8828 40.0527 51.0016 40.6512 50.9999C41.4373 50.9977 42.2097 50.7898 42.8938 50.3964C43.578 50.003 44.1509 49.4374 44.5573 48.7539L45.4064 47.3167C46.5599 45.3551 47.3128 43.1778 47.6202 40.9144C47.9276 38.6511 47.7832 36.3481 47.1957 34.1426ZM38.8886 27.5798C39.0711 27.1388 39.3374 26.7386 39.6722 26.4021C40.007 26.0656 40.4037 25.7994 40.8399 25.6186C41.276 25.4379 41.7429 25.3461 42.2139 25.3486C42.6849 25.3511 43.1508 25.4478 43.5851 25.6332L44.4706 26.0111L44.0984 26.9105C43.9159 27.3515 43.6496 27.7517 43.3148 28.0882C42.98 28.4247 42.5833 28.6909 42.1471 28.8717C41.711 29.0524 41.2441 29.1442 40.7731 29.1417C40.3021 29.1392 39.8362 29.0425 39.4019 28.8571L38.5164 28.4792L38.8886 27.5798ZM38.707 30.536C38.8953 30.6161 39.0879 30.6852 39.2839 30.743C39.0168 30.8933 38.7627 31.0661 38.5241 31.2596C38.5156 30.9819 38.4932 30.7048 38.4568 30.4294L38.707 30.536ZM36.7263 31.7826L36.6241 31.6787C36.3914 31.4429 36.1384 31.2287 35.8682 31.0385V28.3016C36.4811 29.3526 36.7793 30.5622 36.7263 31.7826ZM34.0748 9.10697V30.2147C33.6447 30.1074 33.2033 30.0533 32.7604 30.0535C32.5993 30.0535 32.4397 30.0611 32.2814 30.0753V10.0177C32.2814 9.77615 32.1869 9.5445 32.0188 9.37371C31.8506 9.20292 31.6225 9.10697 31.3847 9.10697H26.9012C26.9018 8.46723 26.7355 7.83876 26.4192 7.28553H32.2814C32.7569 7.2861 33.2127 7.47819 33.5489 7.81965C33.8851 8.16111 34.0743 8.62407 34.0748 9.10697ZM28.3661 45.5356H5.38024V10.9284H9.4496C9.76434 11.4818 10.2168 11.9414 10.7617 12.2611C11.3066 12.5808 11.9246 12.7493 12.5539 12.7498H23.3144C23.9437 12.7494 24.5619 12.5809 25.1068 12.2612C25.6518 11.9415 26.1044 11.4819 26.4192 10.9284H30.488V30.5597C29.7606 30.898 29.1152 31.3942 28.597 32.0132C28.0789 32.6322 27.7006 33.3591 27.489 34.1427C26.481 37.9296 26.7908 41.9538 28.3661 45.5356ZM16.1407 4.78106V3.64266C16.1428 3.16634 16.3276 2.7096 16.6559 2.36949C16.9843 2.02938 17.4303 1.83269 17.8991 1.82123C18.1331 1.81738 18.3655 1.8615 18.5823 1.95095C18.7991 2.0404 18.9959 2.17334 19.1609 2.34182C19.3393 2.51963 19.4812 2.73158 19.5784 2.9654C19.6757 3.19923 19.7264 3.45031 19.7275 3.70414V4.78106C19.7283 5.44506 19.9883 6.08164 20.4506 6.55116C20.9129 7.02067 21.5397 7.28478 22.1935 7.28553H23.3144C23.79 7.28553 24.2462 7.47743 24.5825 7.81902C24.9188 8.1606 25.1078 8.62389 25.1078 9.10697C25.1078 9.59004 24.9188 10.0533 24.5825 10.3949C24.2462 10.7365 23.79 10.9284 23.3144 10.9284H12.5539C12.0782 10.9284 11.6221 10.7365 11.2857 10.3949C10.9494 10.0533 10.7605 9.59004 10.7605 9.10697C10.7605 8.62389 10.9494 8.1606 11.2857 7.81902C11.6221 7.47743 12.0782 7.28553 12.5539 7.28553H13.6748C14.3285 7.28478 14.9553 7.02067 15.4176 6.55116C15.8799 6.08164 16.14 5.44506 16.1407 4.78106ZM1.79341 47.3571V9.10697C1.79398 8.62407 1.9831 8.16111 2.31931 7.81965C2.65552 7.47819 3.11135 7.2861 3.58682 7.28553H9.4496C9.1331 7.8387 8.9666 8.46718 8.96706 9.10697H4.48353C4.24571 9.10697 4.01763 9.20292 3.84946 9.37371C3.6813 9.5445 3.58682 9.77615 3.58682 10.0177V46.4464C3.58682 46.6879 3.6813 46.9195 3.84946 47.0903C4.01763 47.2611 4.24571 47.3571 4.48353 47.3571H29.3022L30.1274 48.7539C30.215 48.9008 30.3107 49.0425 30.414 49.1785H3.58682C3.11135 49.1779 2.65552 48.9859 2.31931 48.6444C1.9831 48.3029 1.79398 47.84 1.79341 47.3571ZM43.8684 46.3794L43.0195 47.8167C42.7731 48.2311 42.4257 48.5741 42.0109 48.8126C41.5961 49.0511 41.1278 49.1772 40.6512 49.1785C40.2883 49.1796 39.9289 49.1075 39.5937 48.9665C39.2584 48.8255 38.9541 48.6183 38.6982 48.357L37.9765 47.6239C37.8932 47.5393 37.7944 47.4722 37.6856 47.4264C37.5768 47.3807 37.4601 47.3571 37.3424 47.3571C37.2246 47.3571 37.108 47.3807 36.9992 47.4264C36.8904 47.4722 36.7915 47.5393 36.7082 47.6239L35.9864 48.357C35.7305 48.6183 35.4262 48.8255 35.091 48.9665C34.7558 49.1075 34.3964 49.1796 34.0336 49.1785C33.5568 49.1772 33.0885 49.0513 32.6736 48.8127C32.2587 48.5742 31.9113 48.2311 31.6649 47.8167L30.8159 46.3794C29.7864 44.6288 29.1145 42.6856 28.8402 40.6656C28.5658 38.6456 28.6947 36.5903 29.2192 34.622C29.3883 33.992 29.7175 33.4182 30.1736 32.958C30.6297 32.4978 31.1969 32.1674 31.8183 31.9998C32.4397 31.8322 33.0935 31.8333 33.7144 32.003C34.3352 32.1728 34.9013 32.5051 35.3559 32.9668L36.7082 34.3403C36.7915 34.4249 36.8904 34.492 36.9992 34.5378C37.108 34.5836 37.2246 34.6071 37.3424 34.6071C37.4601 34.6071 37.5768 34.5836 37.6856 34.5378C37.7944 34.492 37.8932 34.4249 37.9765 34.3403L39.3288 32.9668C39.7835 32.5051 40.3495 32.1727 40.9703 32.003C41.5912 31.8333 42.245 31.8322 42.8664 31.9998C43.4878 32.1674 44.0549 32.4978 44.5111 32.958C44.9672 33.4182 45.2963 33.992 45.4655 34.622C45.9898 36.5903 46.1187 38.6457 45.8443 40.6656C45.5699 42.6856 44.8979 44.6288 43.8684 46.3794Z" fill="white"/>
<path d="M43.2333 41.9256C43.1197 41.8939 43.0011 41.8853 42.8842 41.9002C42.7674 41.9151 42.6545 41.9532 42.5522 42.0124C42.4498 42.0716 42.36 42.1507 42.2877 42.2452C42.2155 42.3397 42.1623 42.4477 42.1312 42.5631C42.0534 42.8513 41.9664 43.1419 41.8733 43.427C41.8351 43.5407 41.8194 43.661 41.8271 43.7809C41.8348 43.9008 41.8659 44.018 41.9184 44.1257C41.9709 44.2334 42.0439 44.3294 42.1332 44.4083C42.2224 44.4872 42.3262 44.5474 42.4384 44.5854C42.5507 44.6234 42.6692 44.6385 42.7872 44.6297C42.9053 44.6209 43.0204 44.5886 43.126 44.5344C43.2317 44.4802 43.3257 44.4054 43.4027 44.3141C43.4797 44.2229 43.5382 44.1171 43.5747 44.0028C43.6784 43.687 43.7747 43.3653 43.8611 43.0453C43.8923 42.9299 43.9009 42.8094 43.8862 42.6906C43.8716 42.5719 43.834 42.4573 43.7757 42.3533C43.7174 42.2493 43.6395 42.158 43.5464 42.0846C43.4534 42.0112 43.347 41.9572 43.2333 41.9256Z" fill="white"/>
<path d="M43.6201 36.4287C43.3823 36.4287 43.1542 36.5247 42.986 36.6955C42.8178 36.8662 42.7234 37.0979 42.7234 37.3394V38.1022C42.7233 38.7263 42.6891 39.35 42.621 39.9703C42.6065 40.0899 42.6154 40.2112 42.6474 40.3272C42.6793 40.4433 42.7336 40.5518 42.8071 40.6463C42.8806 40.7409 42.9719 40.8198 43.0756 40.8783C43.1794 40.9368 43.2935 40.9738 43.4114 40.9871C43.5293 41.0005 43.6487 40.99 43.7626 40.9562C43.8765 40.9224 43.9826 40.8659 44.0749 40.7902C44.1671 40.7144 44.2436 40.6208 44.3 40.5147C44.3564 40.4087 44.3915 40.2923 44.4032 40.1724C44.4787 39.485 44.5166 38.7938 44.5167 38.1022V37.3394C44.5167 37.0979 44.4222 36.8663 44.2541 36.6955C44.0859 36.5247 43.8579 36.4287 43.6201 36.4287Z" fill="white"/>
<path d="M12.8155 14.838L9.86277 17.837L9.60015 17.5702C9.51688 17.4856 9.41802 17.4185 9.30923 17.3728C9.20043 17.327 9.08383 17.3034 8.96606 17.3034C8.8483 17.3034 8.7317 17.327 8.6229 17.3728C8.51411 17.4185 8.41525 17.4856 8.33198 17.5702C8.24871 17.6548 8.18266 17.7552 8.1376 17.8657C8.09253 17.9762 8.06934 18.0946 8.06934 18.2142C8.06934 18.3338 8.09253 18.4522 8.1376 18.5627C8.18266 18.6732 8.24871 18.7736 8.33198 18.8582L9.22869 19.7689C9.31196 19.8535 9.41081 19.9205 9.51961 19.9663C9.6284 20.0121 9.74501 20.0356 9.86277 20.0356C9.98053 20.0356 10.0971 20.0121 10.2059 19.9663C10.3147 19.9205 10.4136 19.8535 10.4969 19.7689L14.0837 16.126C14.2518 15.9552 14.3463 15.7236 14.3463 15.482C14.3463 15.2405 14.2518 15.0088 14.0837 14.838C13.9155 14.6672 13.6874 14.5713 13.4496 14.5713C13.2118 14.5713 12.9837 14.6672 12.8155 14.838Z" fill="white"/>
</svg>
