<svg width="55" height="55" viewBox="0 0 55 55" fill="none" xmlns="http://www.w3.org/2000/svg">
<path d="M23.0726 37.8125H42.1095C42.5847 37.8125 42.9689 37.4275 42.9689 36.9531V23.2031C42.9689 22.7288 42.5847 22.3438 42.1095 22.3438H12.8907C12.4155 22.3438 12.0314 22.7288 12.0314 23.2031V27.6048C11.5811 27.5404 11.1264 27.5 10.6684 27.5C9.1791 27.5 7.68723 27.8523 6.35434 28.5184L5.35918 29.0159C3.96957 29.7112 2.4141 30.0781 0.860352 30.0781V31.7969C2.67879 31.7969 4.50066 31.3672 6.12832 30.5534L7.12348 30.0558C9.82535 28.7066 13.2646 29.0718 15.6201 30.9555L20.5727 34.9173C21.1528 35.3822 21.4854 36.074 21.4854 36.8156C21.4854 37.2977 21.3444 37.7644 21.0763 38.1648L20.3871 39.1987L13.3677 34.5194L12.4146 35.9494L20.149 41.1056C20.2504 41.1735 20.3673 41.2199 20.4911 41.2397L34.8632 43.5093C35.5765 43.621 36.0939 44.2269 36.0939 44.9496C36.0939 45.7523 35.4399 46.4062 34.6364 46.4062H21.4845C19.3687 46.4062 17.2504 45.9061 15.358 44.9599L10.4252 42.4935C8.79754 41.6797 6.97566 41.25 5.15723 41.25H0.860352V42.9688H5.15723C6.71098 42.9688 8.26645 43.3357 9.65605 44.0309L14.5889 46.4973C16.7193 47.5621 19.1032 48.125 21.4845 48.125H34.6364C36.3878 48.125 37.8126 46.7002 37.8126 44.9496C37.8126 43.3761 36.6851 42.057 35.1322 41.8112L22.0852 39.7513L22.5063 39.1187C22.7744 38.7174 22.9583 38.274 23.0726 37.8125ZM37.8994 36.0938C38.2423 34.4128 39.5692 33.0859 41.2501 32.743V36.0938H37.8994ZM41.2501 27.4132C39.5692 27.0703 38.2423 25.7434 37.8994 24.0625H41.2501V27.4132ZM17.1008 24.0625C16.7579 25.7434 15.4311 27.0703 13.7501 27.4132V24.0625H17.1008ZM21.6461 33.5749L18.3495 30.9375H21.4845V29.2188H18.047V30.696L16.6943 29.6141C16.2638 29.2695 15.804 28.9644 15.3236 28.7005C17.179 27.8755 18.5386 26.1396 18.8376 24.0634H36.1626C36.5416 26.6922 38.6213 28.7719 41.2501 29.1509V31.0071C38.6213 31.3861 36.5416 33.4658 36.1626 36.0946H23.1354C22.9618 35.108 22.4444 34.2143 21.6461 33.5749Z" fill="white"/>
<path d="M27.5 34.375C29.8693 34.375 31.7969 32.4474 31.7969 30.0781C31.7969 27.7088 29.8693 25.7812 27.5 25.7812C25.1307 25.7812 23.2031 27.7088 23.2031 30.0781C23.2031 32.4474 25.1307 34.375 27.5 34.375ZM27.5 27.5C28.9214 27.5 30.0781 28.6567 30.0781 30.0781C30.0781 31.4995 28.9214 32.6562 27.5 32.6562C26.0786 32.6562 24.9219 31.4995 24.9219 30.0781C24.9219 28.6567 26.0786 27.5 27.5 27.5Z" fill="white"/>
<path d="M33.5156 29.2188H36.9531V30.9375H33.5156V29.2188Z" fill="white"/>
<path d="M33.5156 9.45328H30.0781V7.73453C30.0781 7.43633 29.9234 7.16047 29.6699 7.0032C29.4164 6.84594 29.1002 6.83219 28.8337 6.96539L18.5213 12.1216C18.2308 12.2677 18.0469 12.5651 18.0469 12.8908C18.0469 13.2165 18.2308 13.5138 18.5221 13.6599L28.8346 18.8162C29.1019 18.9485 29.4181 18.9348 29.6708 18.7784C29.9234 18.6211 30.0781 18.3452 30.0781 18.047V16.3283H33.5156C41.097 16.3283 47.2656 22.4969 47.2656 30.0783C47.2656 30.5527 47.6498 30.9377 48.125 30.9377H53.2812C53.7565 30.9377 54.1406 30.5527 54.1406 30.0783C54.1406 18.7062 44.8877 9.45328 33.5156 9.45328ZM48.9612 29.2189C48.5134 21.0875 41.757 14.6095 33.5156 14.6095H29.2188C28.7435 14.6095 28.3594 14.9945 28.3594 15.4689V16.6566L20.8278 12.8908L28.3594 9.125V10.3127C28.3594 10.787 28.7435 11.172 29.2188 11.172H33.5156C43.6528 11.172 51.9509 19.1917 52.403 29.2189H48.9612Z" fill="white"/>
</svg>
