<svg width="51" height="51" viewBox="0 0 51 51" fill="none" xmlns="http://www.w3.org/2000/svg">
<path d="M31.329 7.21257L28.779 2.96257C28.6254 2.70651 28.3488 2.54989 28.0502 2.55H22.9502V0.85C22.9503 0.380694 22.5699 0.000106272 22.1006 2.22537e-08H22.1002H6.8002C6.33089 -0.000106228 5.9503 0.380269 5.9502 0.849575V0.85V12.75C5.95009 13.2193 6.33046 13.5999 6.79977 13.6H6.8002H9.3502C9.3502 15.0083 10.4919 16.15 11.9002 16.15C13.3085 16.15 14.4502 15.0083 14.4502 13.6H23.8002C23.8002 15.0083 24.9419 16.15 26.3502 16.15C27.7585 16.15 28.9002 15.0083 28.9002 13.6H30.6002C31.0695 13.6001 31.4501 13.2197 31.4502 12.7504V12.75V7.65C31.4503 7.49583 31.4084 7.34464 31.329 7.21257ZM11.9002 14.45C11.4308 14.45 11.0502 14.0694 11.0502 13.6C11.0502 13.1306 11.4308 12.75 11.9002 12.75C12.3696 12.75 12.7502 13.1306 12.7502 13.6C12.7498 14.0692 12.3694 14.4496 11.9002 14.45ZM21.2502 11.9H13.787C12.8652 10.858 11.2732 10.7605 10.2311 11.6823C10.1542 11.7504 10.0815 11.8231 10.0134 11.9H7.6502V1.7H21.2502V11.9ZM26.3502 4.25H27.5688L28.5889 5.95H26.3502V4.25ZM26.3502 14.45C25.8808 14.45 25.5002 14.0694 25.5002 13.6C25.5002 13.1306 25.8808 12.75 26.3502 12.75C26.8196 12.75 27.2002 13.1306 27.2002 13.6C27.1998 14.0692 26.8194 14.4496 26.3502 14.45ZM29.7502 11.9H28.237C27.3152 10.858 25.7232 10.7605 24.6811 11.6823C24.6042 11.7504 24.5315 11.8231 24.4634 11.9H22.9502V4.25H24.6502V6.8C24.6501 7.26931 25.0305 7.64989 25.4998 7.65H25.5002H29.609L29.7502 7.88534V11.9Z" fill="white"/>
<path d="M50.7066 37.6074L45.8996 33.4416V27.1999C45.8997 26.7305 45.5194 26.35 45.05 26.3499H45.0496H41.6496C41.1803 26.3497 40.7997 26.7301 40.7996 27.1994V27.1999V29.0218L37.9566 26.5574C37.6367 26.2809 37.1625 26.2809 36.8427 26.5574L24.0927 37.6074C23.738 37.9153 23.7002 38.4524 24.0082 38.807C24.1696 38.9929 24.4035 39.0996 24.6497 39.0999H28.8997V49.2999C28.8996 49.7692 29.28 50.1497 29.7493 50.1499H29.7497H45.0497C45.519 50.15 45.8996 49.7696 45.8997 49.3003V49.2999V39.0999H50.1497C50.6194 39.0995 50.9998 38.7185 50.9995 38.2489C50.9993 38.0027 50.8924 37.7688 50.7066 37.6074ZM39.0996 48.4499H35.6996V44.1999C35.6996 43.2609 36.4607 42.4999 37.3996 42.4999C38.3386 42.4999 39.0996 43.2609 39.0996 44.1999V48.4499ZM45.0496 37.3999C44.5803 37.3997 44.1997 37.7801 44.1996 38.2494V38.2499V48.4499H40.7996V44.1999C40.7996 42.3221 39.2774 40.7999 37.3996 40.7999C35.5219 40.7999 33.9996 42.3221 33.9996 44.1999V48.4499H30.5996V38.2499C30.5997 37.7805 30.2194 37.4 29.75 37.3999H29.7496H26.9282L37.3996 28.3246L41.0927 31.5258C41.4476 31.8332 41.9847 31.7946 42.2921 31.4397C42.4259 31.2852 42.4995 31.0876 42.4996 30.8833V28.0499H44.1996V33.8296C44.1996 34.0761 44.3065 34.3105 44.4927 34.4721L47.8711 37.3999H45.0496Z" fill="white"/>
<path d="M4.25 2.55029H0V4.25029H4.25V2.55029Z" fill="white"/>
<path d="M4.25 5.94995H0V7.64995H4.25V5.94995Z" fill="white"/>
<path d="M4.25 9.3501H0V11.0501H4.25V9.3501Z" fill="white"/>
<path d="M44.2 8.5H33.15V10.2H44.2C47.0167 10.2 49.3 12.4833 49.3 15.3C49.3 18.1167 47.0167 20.4 44.2 20.4H12.75C5.70839 20.4 0 26.1084 0 33.15C0 40.1916 5.70839 45.9 12.75 45.9H27.2V44.2H12.75C6.64721 44.2 1.7 39.2528 1.7 33.15C1.7 27.0472 6.64721 22.1 12.75 22.1H44.2C47.9555 22.1 51 19.0555 51 15.3C51 11.5445 47.9555 8.5 44.2 8.5Z" fill="white"/>
</svg>
