<svg width="52" height="49" viewBox="0 0 52 49" fill="none" xmlns="http://www.w3.org/2000/svg">
<path d="M47.768 38.5824L47.2023 38.4521C52.6851 33.9401 53.8535 23.9215 48.6892 18.7013C46.702 16.6936 45.515 13.5163 45.515 10.201C45.515 5.39575 42.3681 1.48552 38.4992 1.48552C34.6314 1.48552 31.4834 5.39575 31.4834 10.201C31.4834 11.293 31.3548 12.369 31.1104 13.3931C27.5061 9.21431 21.7825 8.7353 17.9552 11.4065V1.60468C17.9552 1.17986 17.612 0.835148 17.1895 0.835148C16.7666 0.835148 16.4234 1.17986 16.4234 1.60468V4.62622C14.1355 0.480071 9.97219 -0.628995 5.3098 0.313891C4.83888 0.409534 4.57029 0.913257 4.75199 1.36039C4.79484 1.4652 5.82674 3.96349 7.82031 6.15093C10.1797 8.74008 13.108 10.0257 16.4234 9.10353V11.4065C11.9241 8.26625 4.39057 9.39364 1.29567 16.5542C1.12745 16.9439 1.30598 17.3962 1.69399 17.5656C2.08239 17.7349 2.53268 17.5564 2.70129 17.1663C5.53355 10.6147 12.3062 10.0855 15.8982 12.9273C16.646 13.5593 17.7366 13.5561 18.4805 12.9273C22.5696 9.69213 29.6437 11.1001 32.0678 18.1789C33.371 21.9915 33.1104 25.9786 30.8482 30.1028C29.9484 31.7196 29.2089 33.0638 28.5979 34.1832C23.8538 33.1567 23.1766 32.7813 21.5619 32.8163C21.139 32.8247 20.803 33.1754 20.8121 33.6002C20.8204 34.0262 21.1687 34.3646 21.5936 34.3542C21.8714 34.3482 22.1868 34.3626 22.5196 34.4036L22.0602 38.5482C22.0134 38.9702 22.3161 39.3508 22.7366 39.3978C23.1587 39.4448 23.536 39.1392 23.5829 38.7183L24.0272 34.7117C27.0872 35.4134 29.0788 35.8709 31.4516 36.4161L31.2326 38.3923C31.1858 38.8148 31.4885 39.1954 31.9091 39.2424C32.3312 39.2894 32.7085 38.9837 32.7553 38.5625L32.9548 36.7608C33.4281 36.8696 44.301 39.3643 44.437 39.3958L43.8455 44.7307C43.7987 45.1531 44.1018 45.5337 44.5219 45.5807C44.9445 45.6278 45.3214 45.3221 45.3682 44.9013L45.9407 39.7409L47.4272 40.0824C49.27 40.5049 50.4872 42.2245 50.2769 44.1122C50.0687 45.9896 48.4924 47.4087 46.6123 47.4127L38.7713 47.4279L39.0498 44.9188C39.0966 44.4964 38.7939 44.1158 38.3734 44.0688C37.9525 44.0222 37.574 44.3258 37.5272 44.7482L37.2296 47.431L29.7147 47.4454L29.9762 45.0866C30.023 44.6646 29.7203 44.284 29.2998 44.237C28.8804 44.1895 28.5003 44.494 28.4535 44.9164C28.3885 45.5042 28.1794 47.386 28.173 47.4486L24.5751 47.4554L25.0305 43.3495C25.0773 42.9274 24.7746 42.5469 24.3541 42.4998C23.9332 42.4524 23.5547 42.7569 23.5079 43.1793L23.033 47.4585C23.0254 47.4585 23.0199 47.4585 23.0155 47.4585H23.0139H23.0104H23.0056C22.956 47.4585 22.7156 47.4589 21.7369 47.4609C18.73 47.4609 16.1525 45.4006 15.4197 42.5536C14.6679 39.6457 15.9843 36.3986 18.9474 34.9842C19.3295 34.8017 19.4926 34.343 19.3108 33.9593C19.1291 33.5755 18.6725 33.4113 18.2905 33.5942C16.7972 34.306 15.5923 35.4286 14.7905 36.8011C13.2401 36.0244 11.4667 34.8025 10.5209 33.0032C9.29853 30.6707 5.77318 31.5467 5.76128 34.18L3.36105 29.7968C1.71581 26.794 1.11317 23.4237 1.82927 19.9455C1.91496 19.5291 1.64836 19.1218 1.23378 19.0357C0.819192 18.9496 0.414526 19.2174 0.328832 19.6339C-0.43924 23.3664 0.143955 27.116 2.01811 30.5388L5.29075 36.5137L2.89251 36.2451C1.50474 36.0901 0.25623 37.092 0.101901 38.4868C-0.0520304 39.8772 0.947733 41.1349 2.33272 41.2899L6.30361 41.7339C5.31892 42.6194 4.52625 43.422 4.62583 44.6877C4.79801 46.9249 7.60013 47.8571 9.06446 46.1395C10.2697 44.7227 12.153 43.8476 14.0621 43.3754C15.0999 46.634 18.1476 49 21.7369 49C22.904 48.9976 45.2047 48.9546 46.6143 48.9518C49.5101 48.9462 51.8325 46.589 51.8325 43.6966C51.8321 41.2346 50.1611 39.1312 47.768 38.5824ZM6.58846 1.65609C11.6821 0.957491 14.894 3.396 15.9668 7.63341C11.817 8.75562 8.55347 5.46031 6.58846 1.65609ZM45.2043 37.9934L30.1567 34.5399C30.5915 33.7397 31.0739 32.8566 31.6111 31.885C33.0298 34.3398 35.6748 35.9937 38.6971 35.9937C42.5855 35.9937 45.9613 33.2176 46.723 29.3927C46.8059 28.9762 46.5362 28.571 46.1216 28.4881C45.7058 28.4048 45.3035 28.6746 45.2206 29.091C44.6017 32.1986 41.8583 34.455 38.6971 34.455C35.8986 34.455 33.4984 32.7099 32.5169 30.2463C33.7896 27.813 34.3993 25.2418 34.3787 22.6913C38.2222 19.39 44.1482 21.4722 45.1992 26.3496C45.2892 26.7653 45.6955 27.0291 46.1105 26.9386C46.5239 26.8486 46.7865 26.4389 46.6964 26.0237C46.3076 24.2168 45.3023 22.5741 43.8693 21.3985C41.1466 19.1664 37.2546 18.9146 34.2573 20.8673C34.0022 18.8448 33.3329 16.7371 32.2637 14.9812C32.7549 13.4936 33.0155 11.8744 33.0155 10.201C33.0155 6.65067 35.217 3.02459 38.4992 3.02459C41.7464 3.02459 43.9828 6.60205 43.9828 10.201C43.9828 13.9686 45.3023 17.462 47.6026 19.7869C51.5921 23.8167 51.2061 31.2984 47.7406 35.7056C46.9876 36.6628 46.1307 37.4323 45.2043 37.9934ZM13.736 41.8602C11.5536 42.3934 9.34535 43.4415 7.90006 45.1392C7.54339 45.558 6.91418 45.607 6.49761 45.2492C6.07985 44.8893 6.03105 44.2597 6.38851 43.8412C7.05542 43.0582 7.85443 42.3767 8.70463 41.8283C9.30766 41.4366 9.08906 40.4973 8.37375 40.418C7.71042 40.3435 3.00399 39.8162 2.50213 39.76C1.95781 39.6995 1.56346 39.2041 1.62376 38.6574C1.68407 38.1166 2.1661 37.7145 2.72271 37.775C2.72588 37.7754 2.72906 37.7754 2.73183 37.7758L2.72747 37.7754C2.73104 37.7758 2.73699 37.7766 2.74572 37.7774H2.74413C2.75246 37.7782 2.75842 37.7786 2.76199 37.7794C2.75921 37.779 2.75524 37.7786 2.75088 37.7778C2.90759 37.7954 3.82285 37.8978 8.05716 38.372C8.30076 38.3565 9.04304 38.6733 9.36757 38.0046C9.5096 37.7113 9.45247 37.3614 9.22554 37.1287C8.48206 36.3671 7.8703 35.5342 7.40771 34.6539C7.15142 34.1665 7.33828 33.5611 7.8223 33.3037H7.82349C8.31305 33.0451 8.90974 33.2352 9.16642 33.7214C10.2951 35.8697 12.3653 37.2988 14.1466 38.1883C13.7399 39.3404 13.588 40.6204 13.736 41.8602Z" fill="white"/>
</svg>
