<svg width="42" height="56" viewBox="0 0 42 56" fill="none" xmlns="http://www.w3.org/2000/svg">
<path d="M34.1944 13.2631C33.9792 13.2655 33.7704 13.1924 33.6065 13.0573C33.4425 12.9223 33.3345 12.7344 33.3022 12.5282C32.717 8.82507 33.3803 5.03779 35.1936 1.72922H9.02639C10.4728 4.39115 11.1916 7.36779 11.1141 10.3753C11.1141 10.6046 11.0201 10.8245 10.8527 10.9867C10.6854 11.1488 10.4585 11.2399 10.2219 11.2399C9.98528 11.2399 9.75835 11.1488 9.59104 10.9867C9.42372 10.8245 9.32973 10.6046 9.32973 10.3753C9.40276 7.17019 8.50649 4.0144 6.75137 1.29692C6.67329 1.16586 6.63207 1.01724 6.63184 0.865913C6.6316 0.714582 6.67235 0.565842 6.75002 0.434557C6.82769 0.303273 6.93955 0.194044 7.07443 0.117787C7.20931 0.0415302 7.36248 0.000917066 7.51863 6.81561e-06H36.6835C36.8407 -0.000598036 36.9953 0.0390654 37.1316 0.114981C37.2679 0.190896 37.3811 0.300368 37.4597 0.432311C37.538 0.563748 37.5792 0.712845 37.5792 0.864615C37.5792 1.01639 37.538 1.16548 37.4597 1.29692C35.3429 4.56266 34.4982 8.4533 35.0776 12.2688C35.0953 12.3812 35.09 12.4959 35.0619 12.6064C35.0338 12.7168 34.9835 12.8208 34.9139 12.9123C34.8443 13.0039 34.7567 13.0812 34.6562 13.1399C34.5557 13.1986 34.4442 13.2376 34.3282 13.2545L34.1944 13.2631Z" fill="white"/>
<path d="M35.7344 55.2632H22.9093C22.6918 55.2656 22.4807 55.1903 22.315 55.051C22.1492 54.9116 22.04 54.7178 22.0074 54.5051C21.5398 50.8903 21.72 47.2222 22.5395 43.6691C21.5365 43.8697 20.5031 43.8697 19.5001 43.6691C20.3088 47.2236 20.4888 50.8898 20.0322 54.5051C19.9996 54.7178 19.8903 54.9116 19.7246 55.051C19.5589 55.1903 19.3478 55.2656 19.1303 55.2632H6.25102C6.09363 55.2623 5.93922 55.2206 5.80315 55.1424C5.66708 55.0642 5.55408 54.9521 5.47538 54.8173C-3.74212 38.9779 0.632135 29.2478 4.48328 20.6682C4.84405 19.8566 5.20481 19.0539 5.54754 18.2602C5.59055 18.1479 5.65603 18.0454 5.74005 17.9588C5.82408 17.8722 5.92492 17.8032 6.03654 17.7561C6.14815 17.7089 6.26825 17.6845 6.38963 17.6843C6.51101 17.6842 6.63118 17.7082 6.74294 17.7551C6.85469 17.8019 6.95573 17.8706 7.04001 17.957C7.12428 18.0433 7.19006 18.1456 7.2334 18.2578C7.27673 18.3699 7.29673 18.4895 7.29221 18.6094C7.28768 18.7294 7.25872 18.8472 7.20705 18.9558C6.86432 19.7585 6.50356 20.5701 6.13378 21.3906C2.30969 29.8989 -1.64068 38.6926 6.78315 53.4973H18.3546C18.658 49.82 18.3379 46.1184 17.4076 42.5454C17.3686 42.3828 17.3765 42.2126 17.4305 42.0542C17.4845 41.8958 17.5825 41.7556 17.7132 41.6496C17.8439 41.5436 18.0021 41.4761 18.1697 41.4547C18.3373 41.4333 18.5077 41.4589 18.6613 41.5287C19.4031 41.8634 20.2089 42.0367 21.0243 42.0367C21.8397 42.0367 22.6455 41.8634 23.3873 41.5287C23.5423 41.4579 23.7144 41.432 23.8836 41.4541C24.0528 41.4762 24.2122 41.5454 24.3433 41.6535C24.4719 41.7601 24.5679 41.9 24.6205 42.0576C24.673 42.2151 24.6801 42.384 24.6409 42.5454C23.6863 46.1082 23.3749 49.8097 23.721 53.4795H35.2113C43.6712 38.6836 39.5675 29.5421 36.2665 22.1843C36.1685 21.9679 36.1614 21.7218 36.2468 21.5002C36.3322 21.2786 36.5031 21.0996 36.722 21.0026C36.9409 20.9056 37.1897 20.8986 37.4139 20.9831C37.638 21.0675 37.819 21.2366 37.917 21.453C41.227 28.8465 45.7727 38.9779 36.5191 54.8173C36.4396 54.9534 36.3252 55.0663 36.1874 55.1446C36.0496 55.2229 35.8933 55.2638 35.7344 55.2632Z" fill="white"/>
<path d="M22.1139 44.2106C21.0582 44.2132 20.0144 43.9905 19.0546 43.558C18.9033 43.49 18.7746 43.3814 18.6832 43.2448C15.1906 38.0242 9.84124 34.422 2.85609 32.5078C2.64139 32.4484 2.45741 32.3115 2.34099 32.1243C2.22457 31.9371 2.18433 31.7136 2.22831 31.4985C2.54562 29.9954 2.98621 28.5201 3.54576 27.0871C3.6274 26.8779 3.78786 26.7078 3.99374 26.6122C4.19962 26.5166 4.43505 26.5028 4.65101 26.5737C15.966 30.3237 28.2176 30.3237 39.5326 26.5737C39.7497 26.5002 39.9873 26.5127 40.1952 26.6085C40.4031 26.7043 40.565 26.8759 40.6467 27.0871C41.207 28.5213 41.6534 29.9962 41.9818 31.4985C42.0279 31.7161 41.9876 31.9428 41.8692 32.1321C41.7509 32.3214 41.5633 32.4589 41.3452 32.5165C34.2716 34.422 28.9664 38.0329 25.5269 43.2448C25.4317 43.3781 25.304 43.4858 25.1555 43.558C24.2008 43.9873 23.1636 44.2099 22.1139 44.2106ZM20.0095 42.0701C21.3559 42.6094 22.8631 42.6094 24.2094 42.0701C27.7462 36.8495 33.0514 33.1168 40.125 31.0634C39.9216 30.1933 39.6564 29.3754 39.3469 28.4531C28.1668 31.9728 16.1494 31.9728 4.96932 28.4531C4.65101 29.3232 4.39459 30.1933 4.18238 31.0634C11.0968 33.1168 16.4374 36.8147 20.0272 42.0701H20.0095Z" fill="white"/>
<path d="M38.9063 24.3159H23.1078C11.197 24.3159 2.21094 20.779 2.21094 16.0485V5.30535C2.21094 5.07085 2.30403 4.84594 2.46973 4.68012C2.63544 4.5143 2.86018 4.42114 3.09452 4.42114C3.32887 4.42114 3.55361 4.5143 3.71931 4.68012C3.88502 4.84594 3.97811 5.07085 3.97811 5.30535C3.97811 8.38241 11.8332 11.8043 23.1078 11.8043H38.9063C39.1406 11.8043 39.3654 11.8975 39.5311 12.0633C39.6968 12.2291 39.7899 12.454 39.7899 12.6885V23.4317C39.7899 23.6662 39.6968 23.8911 39.5311 24.0569C39.3654 24.2227 39.1406 24.3159 38.9063 24.3159ZM3.97811 8.73609V16.0485C3.97811 19.1167 11.8332 22.5475 23.1078 22.5475H38.0227V13.555H23.1078C14.3426 13.555 7.15902 11.6363 3.97811 8.73609Z" fill="white"/>
<path d="M32.0525 24.3159C31.7594 24.3159 31.4783 24.2175 31.271 24.0423C31.0637 23.8672 30.9473 23.6296 30.9473 23.3819V18.6184C30.9473 18.3706 31.0637 18.1331 31.271 17.9579C31.4783 17.7827 31.7594 17.6843 32.0525 17.6843C32.3457 17.6843 32.6268 17.7827 32.8341 17.9579C33.0413 18.1331 33.1578 18.3706 33.1578 18.6184V23.3819C33.1578 23.6296 33.0413 23.8672 32.8341 24.0423C32.6268 24.2175 32.3457 24.3159 32.0525 24.3159Z" fill="white"/>
<path d="M27.6316 24.3159C27.3385 24.3159 27.0574 24.2247 26.8501 24.0623C26.6428 23.9 26.5264 23.6798 26.5264 23.4502V18.5501C26.5264 18.3205 26.6428 18.1003 26.8501 17.9379C27.0574 17.7755 27.3385 17.6843 27.6316 17.6843C27.9248 17.6843 28.2059 17.7755 28.4132 17.9379C28.6204 18.1003 28.7369 18.3205 28.7369 18.5501V23.4502C28.7369 23.6798 28.6204 23.9 28.4132 24.0623C28.2059 24.2247 27.9248 24.3159 27.6316 24.3159Z" fill="white"/>
<path d="M20.9998 24.3157C20.7067 24.3157 20.4255 24.2019 20.2183 23.9991C20.011 23.7964 19.8945 23.5215 19.8945 23.2348V16.5546C19.8945 16.2679 20.011 15.9929 20.2183 15.7902C20.4255 15.5875 20.7067 15.4736 20.9998 15.4736C21.2929 15.4736 21.5741 15.5875 21.7813 15.7902C21.9886 15.9929 22.1051 16.2679 22.1051 16.5546V23.2348C22.1051 23.5215 21.9886 23.7964 21.7813 23.9991C21.5741 24.2019 21.2929 24.3157 20.9998 24.3157Z" fill="white"/>
<path d="M16.5789 22.1052C16.2858 22.1052 16.0046 22.0195 15.7974 21.8669C15.5901 21.7143 15.4736 21.5073 15.4736 21.2915V16.2873C15.4736 16.0715 15.5901 15.8646 15.7974 15.712C16.0046 15.5594 16.2858 15.4736 16.5789 15.4736C16.872 15.4736 17.1532 15.5594 17.3604 15.712C17.5677 15.8646 17.6842 16.0715 17.6842 16.2873V21.2915C17.6842 21.5073 17.5677 21.7143 17.3604 21.8669C17.1532 22.0195 16.872 22.1052 16.5789 22.1052Z" fill="white"/>
<path d="M9.94706 22.1052C9.65393 22.1052 9.3728 22.0091 9.16552 21.838C8.95824 21.667 8.8418 21.435 8.8418 21.193V16.3858C8.8418 16.1439 8.95824 15.9119 9.16552 15.7408C9.3728 15.5697 9.65393 15.4736 9.94706 15.4736C10.2402 15.4736 10.5213 15.5697 10.7286 15.7408C10.9359 15.9119 11.0523 16.1439 11.0523 16.3858V21.193C11.0523 21.435 10.9359 21.667 10.7286 21.838C10.5213 22.0091 10.2402 22.1052 9.94706 22.1052Z" fill="white"/>
</svg>
