<svg width="47" height="47" viewBox="0 0 47 47" fill="none" xmlns="http://www.w3.org/2000/svg">
<path d="M3.85938 30.5147V43.8424C3.85938 44.0284 3.93327 44.2068 4.0648 44.3384C4.19633 44.4699 4.37473 44.5438 4.56076 44.5438H8.76563C9.26696 44.5425 9.75136 44.3623 10.1317 44.0358C10.5121 43.7092 10.7635 43.2577 10.8408 42.7624L17.5383 45.8504C19.1452 46.5675 20.9261 46.8013 22.6636 46.5234C24.4012 46.2455 26.0203 45.4678 27.3233 44.2853L36.2481 36.2027C37.745 34.9356 36.6294 32.3589 34.7228 32.5228V24.9034C34.7222 24.3454 34.5003 23.8105 34.1058 23.416C33.7113 23.0215 33.1764 22.7996 32.6185 22.799C30.0833 22.8028 24.5845 22.7963 22.0967 22.799H15.784C15.2261 22.7996 14.6912 23.0215 14.2966 23.416C13.9021 23.8105 13.6802 24.3454 13.6796 24.9034V31.2393C13.662 31.1967 10.8719 31.223 10.7437 31.2163C10.599 30.8069 10.3312 30.4524 9.97707 30.2011C9.62295 29.9499 9.19981 29.8144 8.76563 29.813H4.56067C4.46855 29.8131 4.37733 29.8312 4.29223 29.8665C4.20712 29.9018 4.1298 29.9534 4.06468 30.0186C3.99955 30.0838 3.9479 30.1611 3.91268 30.2462C3.87745 30.3314 3.85934 30.4226 3.85938 30.5147ZM25.6044 24.2016V27.0816L24.5971 26.3933C24.0132 25.9721 23.3589 26.7683 22.7985 27.0816V24.2016H25.6044ZM15.7841 24.2016H21.3957V28.4104C21.4214 28.6166 21.4895 28.8246 21.6655 28.9497C21.7824 29.0409 21.9247 29.0938 22.0728 29.1009C22.2209 29.108 22.3676 29.0691 22.4927 28.9896L24.2015 27.822L25.9098 28.9896C26.0495 29.0829 26.218 29.1232 26.3848 29.1031C26.5516 29.0829 26.7058 29.0037 26.8192 28.8798C26.9432 28.7593 26.98 28.575 27.0069 28.4104V24.2016H32.6189C32.8048 24.2019 32.9831 24.2759 33.1146 24.4074C33.2461 24.5389 33.3201 24.7171 33.3203 24.9031V33.0196L22.9984 38.054C24.2446 36.064 22.6585 33.254 20.3025 33.3206H15.6045C15.4762 32.9494 15.3317 32.3751 15.0825 32.0709V24.9034C15.0827 24.7173 15.1566 24.539 15.2881 24.4074C15.4197 24.2759 15.5981 24.2019 15.7841 24.2016ZM14.0548 33.1C14.3176 33.7111 14.3403 34.7293 15.0977 34.7235H20.3039C20.7689 34.7235 21.2149 34.9082 21.5437 35.237C21.8726 35.5659 22.0573 36.0119 22.0573 36.4769C22.0573 36.942 21.8726 37.388 21.5437 37.7168C21.2149 38.0456 20.7689 38.2304 20.3039 38.2304H17.1869C17.0941 38.2293 17.002 38.2467 16.916 38.2815C16.83 38.3163 16.7517 38.3678 16.6857 38.433C16.6197 38.4982 16.5673 38.5759 16.5316 38.6615C16.4958 38.7472 16.4774 38.839 16.4774 38.9318C16.4774 39.0246 16.4958 39.1165 16.5316 39.2021C16.5673 39.2877 16.6197 39.3654 16.6857 39.4306C16.7517 39.4959 16.83 39.5474 16.916 39.5822C17.002 39.6169 17.0941 39.6343 17.1869 39.6332H22.7985C22.905 39.6332 23.01 39.6089 23.1058 39.5624C23.2495 39.4926 34.5871 33.9623 34.5123 33.999C34.6636 33.9146 34.8417 33.8919 35.0093 33.9357C35.1769 33.9795 35.3211 34.0864 35.4117 34.234C35.5147 34.3741 35.5609 34.548 35.5408 34.7207C35.5208 34.8935 35.4361 35.0522 35.3038 35.165L26.3811 43.2454C25.2812 44.2445 23.9144 44.902 22.4473 45.1378C20.9802 45.3736 19.4761 45.1775 18.1185 44.5733L10.8731 41.2327V32.6196H13.3895C13.5369 32.6193 13.6806 32.6656 13.8001 32.7519C13.9196 32.8381 14.0087 32.96 14.0548 33.1ZM5.26214 31.2162H8.76563C8.95254 31.2164 9.13172 31.2908 9.26388 31.4229C9.39604 31.5551 9.47039 31.7343 9.47063 31.9212V42.4354C9.47032 42.6222 9.39595 42.8014 9.2638 42.9335C9.13165 43.0657 8.95252 43.14 8.76563 43.1404H5.26214V31.2162Z" fill="black"/>
<path d="M27.007 33.3208H29.1113C30.028 33.3169 30.0291 31.9219 29.1113 31.918H27.007C26.0907 31.9219 26.0896 33.3169 27.007 33.3208Z" fill="black"/>
<path d="M43.1407 15.7842V5.26242C43.1407 5.07639 43.0668 4.89798 42.9353 4.76643C42.8037 4.63488 42.6253 4.56097 42.4393 4.56094C41.9434 4.60342 37.9095 4.44344 37.5376 4.68748L31.4667 1.27998C30.1468 0.530426 28.6198 0.227838 27.1138 0.417385C25.6078 0.606932 24.2034 1.27845 23.1104 2.3317L19.8788 5.46244L14.684 2.24836L12.2953 0.770392C12.2162 0.722048 12.1284 0.689775 12.0368 0.675421C11.9452 0.661068 11.8517 0.664915 11.7616 0.686742C11.6715 0.70857 11.5866 0.74795 11.5118 0.802628C11.4369 0.857306 11.3736 0.926208 11.3254 1.00539C10.4969 2.38014 8.71755 5.33554 7.87814 6.72855L6.41518 9.157C6.32045 9.31415 6.29106 9.50216 6.3333 9.68073C6.37554 9.8593 6.48605 10.0142 6.64114 10.1123L21.1014 19.2458C24.6884 21.4422 23.6428 21.6417 25.9679 18.1647C25.9679 18.1647 25.9686 18.1642 25.9689 18.1637C25.9692 18.1633 27.2922 16.113 27.2923 16.1125L28.6418 16.9307C29.4164 17.4042 30.3083 17.6508 31.2161 17.6425C32.1239 17.6342 33.0111 17.3712 33.7769 16.8836L36.3306 15.2705C36.4991 15.6327 36.7673 15.9394 37.1038 16.1547C37.4403 16.3699 37.8312 16.4848 38.2306 16.4859H42.4394C42.5315 16.4859 42.6228 16.4677 42.7079 16.4325C42.793 16.3972 42.8703 16.3455 42.9354 16.2803C43.0005 16.2151 43.0522 16.1378 43.0874 16.0527C43.1226 15.9675 43.1407 15.8763 43.1407 15.7842ZM12.1607 2.33703L13.2485 3.01003C13.0095 3.21445 12.7263 3.36058 12.4212 3.43691C12.1161 3.51325 11.7975 3.51771 11.4904 3.44993L12.1607 2.33703ZM8.63954 8.18302C8.84315 8.43078 8.98736 8.72185 9.06112 9.03394C9.13487 9.34604 9.13623 9.67087 9.06507 9.98357L7.97142 9.29267L8.63954 8.18302ZM23.6381 19.1884L22.5438 18.4973C22.7907 18.2901 23.0833 18.1446 23.3975 18.0727C23.7117 18.0009 24.0384 18.0048 24.3508 18.0841L23.6381 19.1884ZM25.1345 16.8697C23.8384 16.3228 22.2492 16.6906 21.3128 17.7193L10.2925 10.7589C10.5394 10.1034 10.5859 9.38927 10.4262 8.70725C10.2665 8.02524 9.90766 7.40608 9.39534 6.92839L10.7442 4.68884C12.0343 5.18451 13.5767 4.7935 14.4862 3.77595L22.0399 8.44974C20.3782 9.36073 20.3704 11.9919 22.0274 12.9201L26.0923 15.3849L25.1345 16.8697ZM33.0273 15.6976C32.4819 16.045 31.85 16.2324 31.2034 16.2384C30.5568 16.2444 29.9214 16.0688 29.3697 15.7316L22.7552 11.7208C22.6165 11.6368 22.4963 11.5256 22.402 11.3938C22.3076 11.2619 22.2411 11.1123 22.2065 10.9539C21.9486 9.96603 23.1135 9.08234 23.978 9.65412L28.3719 12.3677C28.6732 12.5781 29.1113 12.8325 29.4661 12.5958C29.921 12.3574 29.9161 11.6671 29.4806 11.4035L21.1092 6.22375L24.0865 3.33921C24.9614 2.49601 26.0856 1.95862 27.2912 1.80736C28.4968 1.65611 29.719 1.89913 30.775 2.50008L36.396 5.65451C36.2218 5.9623 36.1291 6.30951 36.1267 6.6632V13.7403L33.0273 15.6976ZM41.7379 15.083H38.231C38.0451 15.0827 37.8668 15.0088 37.7353 14.8773C37.6038 14.7458 37.5298 14.5675 37.5295 14.3816V6.66356C37.5297 6.47802 37.6035 6.30013 37.7347 6.16894C37.8659 6.03775 38.0438 5.96397 38.2293 5.9638H41.7379V15.083Z" fill="black"/>
<path d="M17.8881 8.06836C14.1801 8.18586 14.181 13.5627 17.8881 13.68C21.5961 13.5621 21.5952 8.18568 17.8881 8.06836ZM17.8881 12.277C16.0443 12.2443 16.0443 9.50376 17.8881 9.47122C19.7318 9.50403 19.7315 12.2446 17.8881 12.277Z" fill="black"/>
<path d="M40.1319 13.4766C40.4347 13.0963 40.3656 12.7274 40.1319 12.4805C39.762 12.1861 39.3926 12.2342 39.1359 12.4805C39.0062 12.6138 38.9336 12.7925 38.9336 12.9786C38.9336 13.1646 39.0062 13.3433 39.1359 13.4766C39.3858 13.7132 39.7598 13.7731 40.1319 13.4766Z" fill="black"/>
<path d="M6.86907 40.5388C6.6309 40.7885 6.57007 41.1593 6.86907 41.5348C6.96756 41.6333 7.09306 41.7004 7.22967 41.7275C7.36628 41.7547 7.50789 41.7408 7.63657 41.6875C7.76526 41.6342 7.87525 41.5439 7.95264 41.4281C8.03002 41.3122 8.07132 41.1761 8.07132 41.0368C8.07132 40.8975 8.03002 40.7613 7.95264 40.6455C7.87525 40.5297 7.76526 40.4394 7.63657 40.3861C7.50789 40.3328 7.36628 40.3189 7.22967 40.346C7.09306 40.3732 6.96756 40.4403 6.86907 40.5388Z" fill="black"/>
</svg>
