<svg width="45" height="45" viewBox="0 0 45 45" fill="none" xmlns="http://www.w3.org/2000/svg">
<path d="M41.3375 34.6449L40.8479 34.5326C45.5927 30.6455 46.6038 22.0143 42.1347 17.5171C40.415 15.7875 39.3878 13.0502 39.3878 10.194C39.3878 6.05425 36.6645 2.68555 33.3164 2.68555C29.9694 2.68555 27.2451 6.05425 27.2451 10.194C27.2451 11.1348 27.1339 12.0617 26.9224 12.9441C23.8033 9.34398 18.8501 8.9313 15.5381 11.2326V2.78821C15.5381 2.42222 15.2411 2.12525 14.8755 2.12525C14.5095 2.12525 14.2125 2.42222 14.2125 2.78821V5.39129C12.2326 1.81935 8.62974 0.863877 4.595 1.67618C4.18747 1.75858 3.95504 2.19254 4.11228 2.57775C4.14936 2.66804 5.04235 4.82034 6.76755 6.70485C8.8093 8.93542 11.3434 10.043 14.2125 9.24853V11.2326C10.3189 8.52721 3.79952 9.49847 1.12125 15.6673C0.975676 16.0031 1.13017 16.3928 1.46594 16.5387C1.80206 16.6846 2.19173 16.5308 2.33764 16.1947C4.78863 10.5504 10.6495 10.0945 13.758 12.5427C14.4051 13.0872 15.3489 13.0845 15.9927 12.5427C19.5313 9.75562 25.6531 10.9686 27.7508 17.067C28.8786 20.3516 28.6531 23.7866 26.6954 27.3396C25.9168 28.7325 25.2768 29.8905 24.7481 30.8549C20.6426 29.9705 20.0566 29.6471 18.6593 29.6773C18.2933 29.6845 18.0025 29.9867 18.0104 30.3527C18.0176 30.7197 18.319 31.0111 18.6867 31.0022C18.9271 30.9971 19.2 31.0094 19.488 31.0448L19.0905 34.6154C19.05 34.9789 19.3119 35.3068 19.6758 35.3473C20.0411 35.3878 20.3676 35.1245 20.4082 34.762L20.7927 31.3102C23.4407 31.9148 25.1642 32.3089 27.2176 32.7786L27.0281 34.4811C26.9876 34.845 27.2496 35.1729 27.6135 35.2134C27.9788 35.2539 28.3053 34.9906 28.3458 34.6277L28.5185 33.0756C28.9281 33.1693 38.3372 35.3185 38.455 35.3456L37.9431 39.9417C37.9026 40.3056 38.1649 40.6335 38.5284 40.674C38.8941 40.7145 39.2202 40.4512 39.2608 40.0886L39.7562 35.6429L41.0426 35.9372C42.6373 36.3011 43.6907 37.7825 43.5087 39.4089C43.3285 41.0263 41.9644 42.2488 40.3374 42.2523L33.552 42.2653L33.793 40.1037C33.8335 39.7398 33.5715 39.4119 33.2076 39.3714C32.8433 39.3313 32.5158 39.5929 32.4753 39.9568L32.2178 42.2681L25.7146 42.2804L25.9408 40.2483C25.9813 39.8847 25.7194 39.5568 25.3554 39.5163C24.9926 39.4755 24.6637 39.7378 24.6231 40.1017C24.5668 40.6081 24.3859 42.2293 24.3804 42.2832L21.2668 42.289L21.6609 38.7517C21.7015 38.3881 21.4395 38.0603 21.0756 38.0198C20.7113 37.9789 20.3838 38.2412 20.3433 38.6051L19.9323 42.2917C19.9258 42.2917 19.921 42.2917 19.9172 42.2917C19.9169 42.2917 19.9162 42.2917 19.9158 42.2917C19.9148 42.2917 19.9138 42.2917 19.9127 42.2917C19.9127 42.2917 19.9124 42.2917 19.9121 42.2917C19.9107 42.2917 19.91 42.2917 19.9086 42.2917C19.8657 42.2917 19.6576 42.2921 18.8107 42.2938C16.2086 42.2938 13.978 40.5188 13.3439 38.0661C12.6933 35.5609 13.8325 32.7635 16.3968 31.545C16.7274 31.3878 16.8685 30.9926 16.7112 30.662C16.554 30.3314 16.1588 30.1899 15.8282 30.3475C14.5359 30.9607 13.4933 31.9278 12.7994 33.1102C11.4577 32.4411 9.92304 31.3885 9.10456 29.8384C8.04677 27.8289 4.996 28.5835 4.9857 30.8522L2.90859 27.076C1.48483 24.489 0.963316 21.5855 1.58302 18.589C1.65717 18.2302 1.42646 17.8794 1.06769 17.8052C0.708913 17.731 0.358723 17.9618 0.284565 18.3205C-0.38011 21.5361 0.124576 24.7664 1.74644 27.7152L4.57852 32.8627L2.50312 32.6313C1.30218 32.4977 0.221737 33.3609 0.0881835 34.5625C-0.0450261 35.7603 0.82015 36.8439 2.01869 36.9774L5.45502 37.3599C4.60289 38.1228 3.91693 38.8142 4.00311 39.9046C4.15211 41.832 6.57701 42.6351 7.84421 41.1553C8.88723 39.9348 10.517 39.1809 12.1691 38.774C13.0672 41.5814 15.7046 43.6197 18.8107 43.6197C19.8207 43.6177 39.1193 43.5806 40.3391 43.5782C42.8451 43.5734 44.8549 41.5426 44.8549 39.0508C44.8545 36.9297 43.4085 35.1176 41.3375 34.6449ZM5.70153 2.8325C10.1095 2.23065 12.889 4.33145 13.8174 7.98201C10.2262 8.94881 7.40201 6.10987 5.70153 2.8325ZM39.119 34.1375L26.097 31.1622C26.4733 30.4728 26.8908 29.712 27.3557 28.875C28.5834 30.9899 30.8723 32.4147 33.4878 32.4147C36.8527 32.4147 39.774 30.0231 40.4332 26.7278C40.505 26.3691 40.2715 26.0199 39.9127 25.9485C39.5529 25.8767 39.2048 26.1092 39.133 26.4679C38.5975 29.1452 36.2234 31.0891 33.4878 31.0891C31.066 31.0891 28.9888 29.5857 28.1395 27.4632C29.2408 25.3669 29.7685 23.1518 29.7507 20.9545C33.0768 18.1104 38.205 19.9043 39.1145 24.1062C39.1924 24.4643 39.544 24.6916 39.9031 24.6137C40.2609 24.5361 40.4881 24.1831 40.4102 23.8254C40.0737 22.2688 39.2038 20.8536 37.9637 19.8408C35.6074 17.9178 32.2394 17.7008 29.6456 19.3831C29.4249 17.6407 28.8457 15.8249 27.9204 14.3122C28.3455 13.0306 28.571 11.6357 28.571 10.194C28.571 7.13538 30.4761 4.01147 33.3164 4.01147C36.1266 4.01147 38.0619 7.09349 38.0619 10.194C38.0619 13.4398 39.2038 16.4494 41.1944 18.4524C44.6468 21.9241 44.3128 28.3696 41.3138 32.1664C40.6622 32.9911 39.9206 33.6541 39.119 34.1375ZM11.8869 37.4687C9.99823 37.9281 8.08729 38.831 6.83656 40.2936C6.52791 40.6544 5.9834 40.6967 5.62291 40.3884C5.26139 40.0783 5.21916 39.5359 5.52849 39.1754C6.10562 38.5008 6.79708 37.9137 7.53282 37.4413C8.05467 37.1038 7.8655 36.2946 7.24649 36.2262C6.67245 36.162 2.5996 35.7078 2.16529 35.6594C1.69425 35.6072 1.35299 35.1805 1.40517 34.7094C1.45736 34.2435 1.8745 33.8971 2.35618 33.9493C2.35893 33.9497 2.36167 33.9497 2.36408 33.95C2.3627 33.95 2.36133 33.9497 2.3603 33.9497C2.36339 33.95 2.36854 33.9507 2.37609 33.9514C2.37575 33.9514 2.37541 33.9514 2.37472 33.9514C2.38193 33.9521 2.38708 33.9524 2.39017 33.9531C2.38777 33.9527 2.38433 33.9524 2.38056 33.9517C2.51617 33.9668 3.30822 34.0551 6.97251 34.4636C7.18332 34.4502 7.82567 34.7232 8.10651 34.1471C8.22942 33.8944 8.17999 33.5929 7.9836 33.3924C7.34021 32.7364 6.81081 32.0188 6.41049 31.2604C6.18871 30.8405 6.35041 30.319 6.76927 30.0972H6.7703C7.19396 29.8744 7.71032 30.0382 7.93245 30.457C8.9092 32.3079 10.7007 33.539 12.2422 34.3053C11.8903 35.2979 11.7588 36.4006 11.8869 37.4687Z" fill="black"/>
</svg>

