<svg width="54" height="54" viewBox="0 0 54 54" fill="none" xmlns="http://www.w3.org/2000/svg">
<path fill-rule="evenodd" clip-rule="evenodd" d="M18.8947 47.8437H2.68523C1.20445 47.8437 0 46.6393 0 45.1596V10.8928C0 9.41197 1.20445 8.20752 2.68523 8.20752H16.8434C17.1925 8.20752 17.4762 8.49123 17.4762 8.84033C17.4762 9.19049 17.1925 9.47314 16.8434 9.47314H2.68523C1.90266 9.47314 1.26563 10.1102 1.26563 10.8928V45.1596C1.26563 45.9411 1.90266 46.5781 2.68523 46.5781H18.8947C19.6773 46.5781 20.3143 45.9411 20.3143 45.1585C20.3143 44.8094 20.597 44.5257 20.9471 44.5257C21.2963 44.5257 21.58 44.8094 21.58 45.1585C21.58 46.6393 20.3755 47.8437 18.8947 47.8437Z" fill="black"/>
<path fill-rule="evenodd" clip-rule="evenodd" d="M35.1057 45.7914H18.8951C17.4154 45.7914 16.2109 44.588 16.2109 43.1072V8.84043C16.2109 7.3607 17.4154 6.15625 18.8951 6.15625H35.1057C36.5854 6.15625 37.7898 7.3607 37.7898 8.84043V43.1072C37.7898 44.588 36.5854 45.7914 35.1057 45.7914ZM18.8951 7.42188C18.1125 7.42188 17.4766 8.05891 17.4766 8.84043V43.1072C17.4766 43.8898 18.1125 44.5268 18.8951 44.5268H35.1057C35.8872 44.5268 36.5242 43.8898 36.5242 43.1072V8.84043C36.5242 8.05891 35.8872 7.42188 35.1057 7.42188H18.8951Z" fill="black"/>
<path fill-rule="evenodd" clip-rule="evenodd" d="M51.3146 47.8437H35.1052C33.6244 47.8437 32.4199 46.6393 32.4199 45.1585C32.4199 44.8094 32.7036 44.5267 33.0527 44.5267C33.4029 44.5267 33.6855 44.8094 33.6855 45.1585C33.6855 45.9411 34.3226 46.5781 35.1052 46.5781H51.3146C52.0972 46.5781 52.7343 45.9411 52.7343 45.1585V10.8928C52.7343 10.1102 52.0972 9.47314 51.3146 9.47314H37.1565C36.8074 9.47314 36.5237 9.19049 36.5237 8.84033C36.5237 8.49123 36.8074 8.20752 37.1565 8.20752H51.3146C52.7954 8.20752 53.9999 9.41197 53.9999 10.8928V45.1596C53.9999 46.6393 52.7954 47.8437 51.3146 47.8437Z" fill="black"/>
<path fill-rule="evenodd" clip-rule="evenodd" d="M8.73777 23.8411C6.94586 23.8411 5.48828 22.3835 5.48828 20.5916C5.48828 20.2425 5.77199 19.9588 6.12109 19.9588C6.47125 19.9588 6.75391 20.2425 6.75391 20.5916C6.75391 21.6853 7.64406 22.5754 8.73777 22.5754C9.83148 22.5754 10.7216 21.6853 10.7216 20.5916C10.7216 19.4979 9.83148 18.6088 8.73777 18.6088C6.94586 18.6088 5.48828 17.1512 5.48828 15.3593C5.48828 13.5684 6.94586 12.1108 8.73777 12.1108C10.5297 12.1108 11.9873 13.5684 11.9873 15.3593C11.9873 15.7094 11.7036 15.9921 11.3545 15.9921C11.0043 15.9921 10.7216 15.7094 10.7216 15.3593C10.7216 14.2656 9.83148 13.3765 8.73777 13.3765C7.64406 13.3765 6.75391 14.2656 6.75391 15.3593C6.75391 16.453 7.64406 17.3431 8.73777 17.3431C10.5297 17.3431 11.9873 18.8007 11.9873 20.5916C11.9873 22.3835 10.5297 23.8411 8.73777 23.8411Z" fill="black"/>
<path fill-rule="evenodd" clip-rule="evenodd" d="M13.2012 26.8311H4.27539C3.92523 26.8311 3.64258 26.5473 3.64258 26.1982C3.64258 25.8481 3.92523 25.5654 4.27539 25.5654H13.2012C13.5503 25.5654 13.834 25.8481 13.834 26.1982C13.834 26.5473 13.5503 26.8311 13.2012 26.8311Z" fill="black"/>
<path fill-rule="evenodd" clip-rule="evenodd" d="M13.2012 32.6792H4.27539C3.92523 32.6792 3.64258 32.3955 3.64258 32.0464C3.64258 31.6962 3.92523 31.4136 4.27539 31.4136H13.2012C13.5503 31.4136 13.834 31.6962 13.834 32.0464C13.834 32.3955 13.5503 32.6792 13.2012 32.6792Z" fill="black"/>
<path fill-rule="evenodd" clip-rule="evenodd" d="M13.2012 38.5264H4.27539C3.92523 38.5264 3.64258 38.2437 3.64258 37.8936C3.64258 37.5445 3.92523 37.2607 4.27539 37.2607H13.2012C13.5503 37.2607 13.834 37.5445 13.834 37.8936C13.834 38.2437 13.5503 38.5264 13.2012 38.5264Z" fill="black"/>
<path fill-rule="evenodd" clip-rule="evenodd" d="M13.6117 43.9413H3.86426C3.51516 43.9413 3.23145 43.6576 3.23145 43.3085V40.8975C3.23145 40.5473 3.51516 40.2646 3.86426 40.2646H13.6117C13.9608 40.2646 14.2445 40.5473 14.2445 40.8975V43.3085C14.2445 43.6576 13.9608 43.9413 13.6117 43.9413ZM4.49813 42.6757H12.9789V41.5303H4.49813V42.6757Z" fill="black"/>
<path fill-rule="evenodd" clip-rule="evenodd" d="M45.2622 23.8411C43.4703 23.8411 42.0127 22.3835 42.0127 20.5916C42.0127 20.2425 42.2964 19.9588 42.6455 19.9588C42.9946 19.9588 43.2783 20.2425 43.2783 20.5916C43.2783 21.6853 44.1685 22.5754 45.2622 22.5754C46.3559 22.5754 47.245 21.6853 47.245 20.5916C47.245 19.4979 46.3559 18.6088 45.2622 18.6088C43.4703 18.6088 42.0127 17.1512 42.0127 15.3593C42.0127 13.5684 43.4703 12.1108 45.2622 12.1108C47.053 12.1108 48.5106 13.5684 48.5106 15.3593C48.5106 15.7094 48.228 15.9921 47.8778 15.9921C47.5287 15.9921 47.245 15.7094 47.245 15.3593C47.245 14.2656 46.3559 13.3765 45.2622 13.3765C44.1685 13.3765 43.2783 14.2656 43.2783 15.3593C43.2783 16.453 44.1685 17.3431 45.2622 17.3431C47.053 17.3431 48.5106 18.8007 48.5106 20.5916C48.5106 22.3835 47.053 23.8411 45.2622 23.8411Z" fill="black"/>
<path fill-rule="evenodd" clip-rule="evenodd" d="M49.7246 26.8374H40.7988C40.4497 26.8374 40.166 26.5537 40.166 26.2046C40.166 25.8555 40.4497 25.5718 40.7988 25.5718H49.7246C50.0748 25.5718 50.3575 25.8555 50.3575 26.2046C50.3575 26.5537 50.0748 26.8374 49.7246 26.8374Z" fill="black"/>
<path fill-rule="evenodd" clip-rule="evenodd" d="M49.7246 32.6855H40.7988C40.4497 32.6855 40.166 32.4018 40.166 32.0527C40.166 31.7026 40.4497 31.4199 40.7988 31.4199H49.7246C50.0748 31.4199 50.3575 31.7026 50.3575 32.0527C50.3575 32.4018 50.0748 32.6855 49.7246 32.6855Z" fill="black"/>
<path fill-rule="evenodd" clip-rule="evenodd" d="M49.7246 38.5327H40.7988C40.4497 38.5327 40.166 38.2501 40.166 37.8999C40.166 37.5508 40.4497 37.2671 40.7988 37.2671H49.7246C50.0748 37.2671 50.3575 37.5508 50.3575 37.8999C50.3575 38.2501 50.0748 38.5327 49.7246 38.5327Z" fill="black"/>
<path fill-rule="evenodd" clip-rule="evenodd" d="M50.135 43.9413H40.3887C40.0396 43.9413 39.7559 43.6576 39.7559 43.3085V40.8975C39.7559 40.5473 40.0396 40.2646 40.3887 40.2646H50.135C50.4852 40.2646 50.7679 40.5473 50.7679 40.8975V43.3085C50.7679 43.6576 50.4852 43.9413 50.135 43.9413ZM41.0215 42.6757H49.5022V41.5303H41.0215V42.6757Z" fill="black"/>
<path fill-rule="evenodd" clip-rule="evenodd" d="M27.0005 21.2205C25.2086 21.2205 23.751 19.7639 23.751 17.972C23.751 17.6229 24.0347 17.3392 24.3838 17.3392C24.7339 17.3392 25.0166 17.6229 25.0166 17.972C25.0166 19.0657 25.9068 19.9548 27.0005 19.9548C28.0942 19.9548 28.9843 19.0657 28.9843 17.972C28.9843 16.8783 28.0942 15.9882 27.0005 15.9882C25.2086 15.9882 23.751 14.5306 23.751 12.7397C23.751 10.9478 25.2086 9.49023 27.0005 9.49023C28.7924 9.49023 30.25 10.9478 30.25 12.7397C30.25 13.0888 29.9662 13.3725 29.6171 13.3725C29.267 13.3725 28.9843 13.0888 28.9843 12.7397C28.9843 11.646 28.0942 10.7559 27.0005 10.7559C25.9068 10.7559 25.0166 11.646 25.0166 12.7397C25.0166 13.8334 25.9068 14.7225 27.0005 14.7225C28.7924 14.7225 30.25 16.1801 30.25 17.972C30.25 19.7639 28.7924 21.2205 27.0005 21.2205Z" fill="black"/>
<path fill-rule="evenodd" clip-rule="evenodd" d="M31.4629 24.7851H22.5381C22.1879 24.7851 21.9053 24.5024 21.9053 24.1523C21.9053 23.8032 22.1879 23.5205 22.5381 23.5205H31.4629C31.813 23.5205 32.0957 23.8032 32.0957 24.1523C32.0957 24.5024 31.813 24.7851 31.4629 24.7851Z" fill="black"/>
<path fill-rule="evenodd" clip-rule="evenodd" d="M31.4629 30.6333H22.5381C22.1879 30.6333 21.9053 30.3506 21.9053 30.0005C21.9053 29.6514 22.1879 29.3677 22.5381 29.3677H31.4629C31.813 29.3677 32.0957 29.6514 32.0957 30.0005C32.0957 30.3506 31.813 30.6333 31.4629 30.6333Z" fill="black"/>
<path fill-rule="evenodd" clip-rule="evenodd" d="M31.4629 36.4814H22.5381C22.1879 36.4814 21.9053 36.1977 21.9053 35.8486C21.9053 35.4995 22.1879 35.2158 22.5381 35.2158H31.4629C31.813 35.2158 32.0957 35.4995 32.0957 35.8486C32.0957 36.1977 31.813 36.4814 31.4629 36.4814Z" fill="black"/>
<path fill-rule="evenodd" clip-rule="evenodd" d="M31.8723 42.4574H22.126C21.7769 42.4574 21.4932 42.1737 21.4932 41.8246V39.4136C21.4932 39.0645 21.7769 38.7808 22.126 38.7808H31.8723C32.2225 38.7808 32.5052 39.0645 32.5052 39.4136V41.8246C32.5052 42.1747 32.2225 42.4574 31.8723 42.4574ZM22.7588 41.1918H31.2395V40.0464H22.7588V41.1918Z" fill="black"/>
</svg>
