<svg width="43" height="43" viewBox="0 0 43 43" fill="none" xmlns="http://www.w3.org/2000/svg">
<path d="M3.70765 43H5.71387C6.08541 43 6.38574 42.6997 6.38574 42.3281V40.9703H36.6147V42.3281C36.6147 42.6997 36.9151 43 37.2866 43H39.3022C39.6738 43 39.9741 42.6997 39.9741 42.3281V1.67969C39.9741 0.753844 39.2209 0 38.2944 0C37.3679 0 36.6147 0.753844 36.6147 1.67969V12.0964H34.6005V2.69287C34.6005 2.322 34.3001 2.021 33.9286 2.021H23.1813C22.8097 2.021 22.5094 2.322 22.5094 2.69287V12.0958H20.4924V2.69287C20.4924 2.322 20.1921 2.021 19.8206 2.021H9.07324C8.7017 2.021 8.40137 2.322 8.40137 2.69287V12.0958H6.38574V1.67969C6.38574 0.753844 5.63257 0 4.70605 0C3.77954 0 3.02637 0.753844 3.02637 1.67969L3.03577 42.3281C3.03577 42.6997 3.3361 43 3.70765 43ZM37.9585 1.67969C37.9585 1.49425 38.1097 1.34375 38.2944 1.34375C38.4792 1.34375 38.6304 1.49425 38.6304 1.67969V41.6562H37.9585V1.67969ZM27.8817 3.36475H29.2268V4.042H27.8817V3.36475ZM23.8531 3.36475H26.538V4.71387C26.538 5.08475 26.8383 5.38575 27.2098 5.38575H29.8987C30.2702 5.38575 30.5706 5.08475 30.5706 4.71387V3.36475H33.2567V12.0958H23.8531V3.36475ZM13.7737 3.36475H15.1174V4.042H13.7737V3.36475ZM9.74512 3.36475H12.4299V4.71387C12.4299 5.08475 12.7303 5.38575 13.1018 5.38575H15.7893C16.1609 5.38575 16.4612 5.08475 16.4612 4.71387V3.36475H19.1487V12.0958H9.74512V3.36475ZM6.38574 13.4395H9.07324H19.8206H23.1813H33.9286H36.6147V14.1114H6.38574V13.4395ZM6.38574 15.4551H36.6147V24.8419H34.6018V17.458C34.6018 17.0871 34.3015 16.7861 33.9299 16.7861H9.07055C8.69901 16.7861 8.39868 17.0871 8.39868 17.458V24.8426H6.38574V15.4551ZM19.8206 20.1455H23.1799C23.5515 20.1455 23.8518 19.8445 23.8518 19.4736V18.1299H33.2581V24.8426H9.74243V18.1299H19.1487V19.4736C19.1487 19.8445 19.449 20.1455 19.8206 20.1455ZM20.4924 18.8018V18.1299H22.5081V18.8018H20.4924ZM6.38574 26.1863H9.07055H33.9299H36.6147V26.8595H6.38574V26.1863ZM6.38574 28.2033H36.6147V37.6095H34.6031V29.5538C34.6031 29.1822 34.3028 28.8819 33.9313 28.8819H24.5237C24.1521 28.8819 23.8518 29.1822 23.8518 29.5538V37.6095H21.8402V31.5707C21.8402 31.1992 21.5399 30.8989 21.1683 30.8989H16.4692C16.4666 30.8989 16.4652 30.8975 16.4625 30.8975C16.4598 30.8975 16.4585 30.8989 16.4558 30.8989H13.7804C13.7777 30.8989 13.7764 30.8975 13.7737 30.8975C13.771 30.8975 13.7696 30.8989 13.767 30.8989H9.07324C8.7017 30.8989 8.40137 31.1992 8.40137 31.5707V37.6095H6.38574V28.2033ZM27.8831 32.246H30.5719C30.9434 32.246 31.2438 31.9456 31.2438 31.5741V30.225H33.2594V37.6089H25.1956V30.225H27.2112V31.5741C27.2112 31.9456 27.5115 32.246 27.8831 32.246ZM28.5549 30.9022V30.225H29.9V30.9022H28.5549ZM13.7737 34.2616H16.4625C16.8341 34.2616 17.1344 33.9613 17.1344 33.5897V32.2419H20.4965V37.6089H9.74512V32.2419H13.1018V33.5897C13.1018 33.9613 13.4021 34.2616 13.7737 34.2616ZM14.4456 32.9178V32.2419H15.7906V32.9178H14.4456ZM6.38574 38.9533H9.07324H21.1683H24.5237H33.9313H36.6147V39.6265H6.38574V38.9533ZM4.70605 1.34375C4.89082 1.34375 5.04199 1.49425 5.04199 1.67969V41.6562H4.37952L4.37012 1.67969C4.37012 1.49425 4.52129 1.34375 4.70605 1.34375Z" fill="black"/>
</svg>
