<svg width="50" height="47" viewBox="0 0 50 47" fill="none" xmlns="http://www.w3.org/2000/svg">
<path d="M37.9043 0C35.5118 0 33.173 0.709456 31.1837 2.03865C29.1944 3.36785 27.644 5.25708 26.7284 7.46746C25.8129 9.67783 25.5733 12.1101 26.0401 14.4566C26.5068 16.8031 27.6589 18.9585 29.3506 20.6503C31.0424 22.342 33.1978 23.4941 35.5443 23.9608C37.8908 24.4276 40.3231 24.188 42.5334 23.2725C44.7438 22.3569 46.6331 20.8065 47.9623 18.8172C49.2915 16.8279 50.0009 14.4891 50.0009 12.0966C49.9973 8.88953 48.7216 5.81481 46.4539 3.54703C44.1861 1.27926 41.1114 0.00362857 37.9043 0ZM37.9043 22.5804C35.8308 22.5804 33.8038 21.9655 32.0798 20.8136C30.3558 19.6616 29.012 18.0243 28.2185 16.1086C27.425 14.1929 27.2174 12.085 27.622 10.0514C28.0265 8.01771 29.025 6.14969 30.4911 4.68351C31.9573 3.21733 33.8253 2.21885 35.859 1.81433C37.8926 1.40981 40.0006 1.61742 41.9162 2.41091C43.8319 3.2044 45.4692 4.54813 46.6212 6.27218C47.7732 7.99622 48.388 10.0232 48.388 12.0966C48.3848 14.8761 47.2793 17.5408 45.3139 19.5062C43.3485 21.4716 40.6837 22.5772 37.9043 22.5804Z" fill="white"/>
<path d="M41.1704 5.6451C39.9581 5.64153 38.79 6.10039 37.9043 6.92815C37.22 6.29239 36.3651 5.87015 35.4443 5.71323C34.5236 5.5563 33.577 5.67152 32.7208 6.04475C31.8646 6.41797 31.1359 7.03298 30.6242 7.81433C30.1124 8.59568 29.8398 9.50941 29.8398 10.4434C29.8402 11.3308 30.0283 12.208 30.3917 13.0174C30.7552 13.8269 31.2858 14.5503 31.9487 15.1402L37.368 19.9579C37.5157 20.0894 37.7065 20.162 37.9043 20.162C38.102 20.162 38.2929 20.0894 38.4406 19.9579L43.8598 15.1402C44.5227 14.5503 45.0533 13.8269 45.4168 13.0174C45.7803 12.208 45.9683 11.3308 45.9687 10.4434C45.9672 9.1713 45.4612 7.95169 44.5616 7.05215C43.6621 6.15261 42.4425 5.6466 41.1704 5.6451ZM42.7881 13.9345L37.9043 18.2756L33.0205 13.9345C32.5275 13.4962 32.133 12.9586 31.8628 12.3568C31.5926 11.7551 31.4528 11.103 31.4527 10.4434C31.4528 9.81343 31.6396 9.19758 31.9896 8.67376C32.3396 8.14993 32.8371 7.74167 33.4192 7.50058C34.0012 7.25949 34.6417 7.1964 35.2596 7.31931C35.8775 7.44221 36.4451 7.74557 36.8906 8.19104L37.3341 8.63459C37.4853 8.78577 37.6904 8.8707 37.9043 8.8707C38.1181 8.8707 38.3232 8.78577 38.4744 8.63459L38.918 8.19104C39.3635 7.74557 39.931 7.44221 40.5489 7.31931C41.1668 7.1964 41.8073 7.25949 42.3894 7.50058C42.9714 7.74167 43.4689 8.14993 43.8189 8.67376C44.169 9.19758 44.3558 9.81343 44.3558 10.4434C44.3557 11.103 44.216 11.7551 43.9458 12.3568C43.6755 12.9586 43.281 13.4962 42.7881 13.9345Z" fill="white"/>
<path d="M0.806443 46.7739H8.87087C9.08475 46.7739 9.28987 46.689 9.44111 46.5377C9.59235 46.3865 9.67731 46.1814 9.67731 45.9675H26.6126C27.6235 45.9663 28.5971 45.5859 29.3412 44.9016C30.0852 44.2173 30.5455 43.2788 30.6311 42.2715C31.6824 41.1138 32.2626 39.6047 32.2577 38.0409V37.4305L32.5448 37.1434C32.9664 36.724 33.3007 36.2252 33.5283 35.6758C33.7558 35.1264 33.8722 34.5373 33.8706 33.9426C33.8695 33.2401 33.7061 32.5474 33.3932 31.9184L33.1512 31.4402C33.6235 30.3671 33.8684 29.2078 33.8706 28.0354V27.9177C33.8706 27.1438 33.5632 26.4017 33.016 25.8545C32.4688 25.3074 31.7267 25 30.9529 25H23.0788C22.9933 25.0002 22.9091 24.9784 22.8345 24.9367C22.7598 24.8951 22.6971 24.835 22.6523 24.7621C22.6075 24.6893 22.5822 24.6061 22.5788 24.5207C22.5754 24.4352 22.594 24.3504 22.6328 24.2742L23.3344 22.8726C24.4261 20.682 24.9961 18.2685 24.9997 15.821C24.9997 15.0472 24.6923 14.3051 24.1451 13.7579C23.598 13.2107 22.8558 12.9033 22.082 12.9033H20.9675C20.3259 12.9033 19.7105 13.1582 19.2568 13.6119C18.8031 14.0656 18.5482 14.681 18.5482 15.3226C18.5507 16.2399 18.3713 17.1486 18.0202 17.9961C17.6692 18.8435 17.1535 19.6129 16.503 20.2597L14.2289 22.5339C12.8954 23.8707 11.8896 25.4981 11.2902 27.2886C11.1638 27.6684 10.9496 28.0131 10.665 28.2946C10.3804 28.5761 10.0335 28.7865 9.65231 28.9088C9.62531 28.7203 9.53161 28.5477 9.38823 28.4224C9.24486 28.2971 9.0613 28.2273 8.87087 28.2257H0.806443C0.592561 28.2257 0.387439 28.3107 0.236202 28.4619C0.0849642 28.6132 0 28.8183 0 29.0322V45.9675C0 46.1814 0.0849642 46.3865 0.236202 46.5377C0.387439 46.689 0.592561 46.7739 0.806443 46.7739ZM12.8224 27.7983C13.3423 26.2452 14.2148 24.8336 15.3716 23.6742L17.6458 21.4C18.4462 20.6037 19.0806 19.6566 19.5124 18.6134C19.9441 17.5702 20.1646 16.4517 20.1611 15.3226C20.1611 15.1088 20.246 14.9036 20.3973 14.7524C20.5485 14.6012 20.7536 14.5162 20.9675 14.5162H22.082C22.428 14.5164 22.7598 14.654 23.0044 14.8986C23.2491 15.1433 23.3866 15.475 23.3868 15.821C23.3842 18.0194 22.8725 20.1873 21.8917 22.1548L21.1901 23.5572C21.0293 23.8792 20.9535 24.2368 20.9698 24.5963C20.9861 24.9558 21.0939 25.3052 21.2831 25.6112C21.4723 25.9173 21.7366 26.17 22.0508 26.3453C22.3651 26.5206 22.7189 26.6127 23.0788 26.6128H30.9529C31.1555 26.6131 31.3554 26.6603 31.5367 26.7507C31.7539 26.8586 31.9365 27.025 32.0639 27.2312C32.1913 27.4375 32.2585 27.6753 32.2577 27.9177V28.0354C32.2552 29.0964 32.0068 30.1423 31.5319 31.091C31.476 31.203 31.4469 31.3264 31.4469 31.4515C31.4469 31.5766 31.476 31.7 31.5319 31.812L31.9464 32.6394C32.1492 33.044 32.2557 33.49 32.2577 33.9426C32.2587 34.3254 32.1838 34.7046 32.0373 35.0582C31.8909 35.4119 31.6758 35.733 31.4045 36.0031L30.8811 36.5264C30.7299 36.6776 30.6449 36.8827 30.6448 37.0966V38.0409C30.6467 38.6585 30.5259 39.2704 30.2896 39.841C30.0533 40.4116 29.7062 40.9296 29.2682 41.3651C29.117 41.5163 29.032 41.7214 29.0319 41.9353C29.0319 42.5769 28.777 43.1923 28.3233 43.646C27.8696 44.0997 27.2543 44.3546 26.6126 44.3546H9.67731V30.558C10.399 30.4177 11.0704 30.0883 11.623 29.6034C12.1756 29.1186 12.5896 28.4956 12.8224 27.7983ZM1.61289 29.8386H8.06443V45.161H1.61289V29.8386Z" fill="white"/>
</svg>
